<?xml version="1.0" encoding="UTF-8"?>
<svg version="1.1" xmlns="http://www.w3.org/2000/svg" width="1000" height="1000">
<path d="M0 0 C1.67726557 0.55532213 3.35522935 1.10853898 5.0338164 1.65985376 C9.60528011 3.16798988 14.16634286 4.70557927 18.72615302 6.24853194 C23.66031147 7.91227443 28.60372199 9.54810218 33.54600525 11.18751526 C43.20965928 14.39789325 52.86463095 17.63364262 62.51689111 20.8780947 C73.7641513 24.65756584 85.01995563 28.41127177 96.27619392 32.16390137 C116.36015489 38.86046959 136.43645298 45.57971801 156.50843811 52.31208801 C175.97581293 58.84163733 195.4481735 65.3560162 214.92640686 71.85310364 C216.12684786 72.25352102 217.32728887 72.65393841 218.56410687 73.06648966 C220.36169195 73.66608298 220.36169195 73.66608298 222.19559187 74.27778929 C224.60859884 75.0826622 227.02160405 75.88754036 229.43460751 76.69242382 C230.62468164 77.08938287 231.81475578 77.48634191 233.04089278 77.89533002 C251.62067746 84.09344077 270.19594529 90.30506864 288.77070917 96.5182068 C295.49735523 98.76805375 302.22464374 101.01596742 308.95239984 103.26249268 C319.62112492 106.82506002 330.28785863 110.39346131 340.95058786 113.97393849 C345.82111677 115.60931749 350.69252591 117.24192344 355.56656456 118.86681557 C360.03039743 120.35507997 364.49135093 121.85166257 368.95017106 123.35487608 C370.5611859 123.89641907 372.17320674 124.4349807 373.78633141 124.97020628 C394.84666819 131.96293888 394.84666819 131.96293888 401.13612366 139.22102356 C401.76260803 139.91840637 402.38909241 140.61578918 403.03456116 141.33430481 C407.44455223 147.90938199 408.19836102 153.98227097 408.12188721 161.67817688 C408.12445048 162.63239643 408.12701376 163.58661597 408.12965471 164.56975126 C408.13457645 167.75120937 408.11812605 170.93218766 408.10169983 174.11360168 C408.10085321 176.40046681 408.10132938 178.68733274 408.10302734 180.97419739 C408.10388736 187.17194477 408.08626036 193.36951764 408.06530547 199.5672245 C408.04653985 206.04812864 408.04478831 212.52903687 408.04122925 219.00996399 C408.03296717 229.88438525 408.01423406 240.75874214 407.98744202 251.63313293 C407.95988167 262.83104636 407.93865778 274.02894241 407.92591858 285.22688293 C407.92513041 285.91776412 407.92434224 286.60864531 407.92353018 287.32046229 C407.91961491 290.78660163 407.91582383 294.2527411 407.91209447 297.71888065 C407.88102232 326.44880478 407.82798347 355.17866167 407.76112366 383.90852356 C406.03154331 382.81176355 404.30247826 381.71419091 402.57362366 380.61628723 C401.61069397 380.00516586 400.64776428 379.39404449 399.65565491 378.7644043 C395.31408069 375.98072595 391.03967099 373.10018864 386.76112366 370.22102356 C327.58879872 330.64092603 263.77704669 297.08465069 196.76112366 272.90852356 C195.75885742 272.54597473 195.75885742 272.54597473 194.73634338 272.17610168 C146.31360617 254.69336241 96.41847801 242.17952368 45.32362366 235.65852356 C44.15524963 235.50746155 42.98687561 235.35639954 41.78309631 235.20075989 C19.68128129 232.52883039 -2.42533041 231.52573075 -24.67637634 231.59602356 C-26.49498169 231.59875778 -26.49498169 231.59875778 -28.35032654 231.60154724 C-48.794067 231.65295971 -68.94169411 232.48928135 -89.23887634 234.90852356 C-90.69345653 235.07657592 -92.14804654 235.24454331 -93.60264587 235.41242981 C-174.25580717 244.86892977 -251.1753937 270.95902031 -447.46006775 377.04011536 C-448.835578 377.96497742 -448.835578 377.96497742 -450.23887634 378.90852356 C-451.30412537 379.64691467 -452.36937439 380.38530579 -453.46690369 381.14607239 C-456.23887634 382.90852356 -456.23887634 382.90852356 -458.23887634 382.90852356 C-458.3301805 353.63371914 -458.40094277 324.35892484 -458.44313766 295.08400709 C-458.44814032 291.62569138 -458.45331763 288.16737596 -458.45860291 284.70906067 C-458.45965215 284.02058945 -458.46070139 283.33211823 -458.46178243 282.62278425 C-458.47917469 271.48376203 -458.51070585 260.34482262 -458.54748753 249.20584948 C-458.58492985 237.77120918 -458.60681984 226.33663601 -458.61523032 214.90193266 C-458.62044384 208.48132326 -458.63269274 202.0609015 -458.66179657 195.64035225 C-458.68897618 189.59524041 -458.69731603 183.55039327 -458.69130707 177.50522614 C-458.69240615 175.28850045 -458.70034461 173.07176578 -458.71569824 170.855093 C-458.73566554 167.82322818 -458.73079051 164.79235641 -458.71989441 161.76046753 C-458.73154577 160.88787405 -458.74319714 160.01528056 -458.75520158 159.11624485 C-458.67948693 151.29603746 -456.18894013 144.43359349 -450.86387634 138.59602356 C-450.31989197 137.98114075 -449.77590759 137.36625793 -449.21543884 136.73274231 C-444.70584826 132.57072886 -439.95338695 130.2290632 -434.17339516 128.29236984 C-433.48240917 128.05813564 -432.79142319 127.82390145 -432.07949823 127.58256924 C-429.76768752 126.80134095 -427.45182572 126.03292509 -425.13575745 125.26441956 C-423.45881121 124.70074494 -421.78212462 124.13629738 -420.10567605 123.57114434 C-415.50098064 122.02142496 -410.89258638 120.48297961 -406.28348756 118.94641447 C-401.31178163 117.28684479 -396.34352231 115.61701417 -391.37477112 113.94862366 C-380.50992663 110.30272801 -369.64060365 106.6703163 -358.77034807 103.04059124 C-351.98032376 100.77323516 -345.19125181 98.50303732 -338.40237045 96.23226166 C-319.59871723 89.94320484 -300.79405692 83.65718297 -281.98530006 77.38340378 C-280.78175039 76.98194913 -279.57820072 76.58049448 -278.33817985 76.16687454 C-275.89836502 75.35306447 -273.45854979 74.53925558 -271.01873417 73.72544786 C-269.80763597 73.32147808 -268.59653777 72.91750829 -267.34873962 72.501297 C-265.52986835 71.89460459 -265.52986835 71.89460459 -263.6742522 71.27565578 C-244.03407855 64.72394002 -224.40139896 58.1500715 -204.77190156 51.56644604 C-184.60919611 44.80432014 -164.44053001 38.06024022 -144.26571596 31.33432412 C-132.94223886 27.5588318 -121.62142194 23.77576496 -110.3071022 19.97290802 C-100.67092863 16.73420473 -91.02938832 13.51214714 -81.38054438 10.31137916 C-76.46106037 8.67892141 -71.54444764 7.03893414 -66.63458252 5.37774658 C-62.13185485 3.85452182 -57.62218933 2.35401536 -53.1061974 0.87059525 C-51.48150621 0.33264843 -49.85942742 -0.21327463 -48.24050315 -0.76833537 C-30.8568013 -6.71772559 -17.23014934 -5.90896911 0 0 Z " fill="#FFFFFF" transform="translate(525.2388763427734,5.0914764404296875)"/>
<path d="M0 0 C3.49797462 1.31737861 6.6470334 2.85841551 9.859375 4.765625 C10.79676514 5.31855225 11.73415527 5.87147949 12.69995117 6.44116211 C13.70646729 7.03807861 14.7129834 7.63499512 15.75 8.25 C64.16028192 36.6831854 114.13105994 61.92742503 167 81 C168.00226624 81.36254883 168.00226624 81.36254883 169.02478027 81.73242188 C217.44751749 99.21516115 267.34264565 111.72899988 318.4375 118.25 C319.60587402 118.40106201 320.77424805 118.55212402 321.97802734 118.70776367 C344.07984237 121.37969317 366.18645407 122.38279281 388.4375 122.3125 C390.25610535 122.30976578 390.25610535 122.30976578 392.1114502 122.30697632 C412.55519066 122.25556385 432.70281777 121.41924221 453 119 C454.45458019 118.83194764 455.90917019 118.66398025 457.36376953 118.49609375 C538.01693082 109.03959379 614.93651736 82.94950325 773.875 1.22265625 C776 0 776 0 778 0 C775.59243384 7.78918464 772.419145 15.14087133 769.0625 22.5625 C768.77721436 23.19561096 768.49192871 23.82872192 768.19799805 24.48101807 C742.47638358 81.47656052 708.47273166 135.21001666 666.265625 181.48828125 C664.39500922 183.56208461 662.55728527 185.65685378 660.7265625 187.765625 C656.95634141 192.08272977 653.06075058 196.27140563 649.125 200.4375 C648.07119141 201.55390869 648.07119141 201.55390869 646.99609375 202.69287109 C640.34896957 209.71627657 633.7007909 216.6345317 626.3515625 222.9296875 C623.85602698 225.12675366 621.43254919 227.38874372 619.00927734 229.66479492 C613.49416832 234.84213863 607.92217514 239.84975989 602.01171875 244.578125 C599.72102101 246.42019063 597.45823738 248.28257939 595.20703125 250.171875 C569.004965 272.11909039 540.52721774 290.85499356 511 308 C509.85337891 308.67071533 509.85337891 308.67071533 508.68359375 309.35498047 C410.24933683 366.66166457 410.24933683 366.66166457 377.97460938 358.20751953 C370.13716684 355.74975613 362.4877676 352.78106965 354.86108398 349.74072266 C353.03151527 349.01254327 351.19839818 348.29329966 349.36523438 347.57421875 C330.79699428 340.2597628 312.8300688 331.93520416 295 323 C293.91203125 322.45730469 292.8240625 321.91460938 291.703125 321.35546875 C255.20191593 303.06035054 220.78966087 280.61476313 189 255 C188.07058594 254.25363281 187.14117187 253.50726562 186.18359375 252.73828125 C175.01729188 243.68496227 164.14690495 234.30223588 153.62304688 224.50976562 C151.82986999 222.84174429 150.03205227 221.17879457 148.234375 219.515625 C130.7420278 203.29969331 130.7420278 203.29969331 123.13671875 194.41796875 C120.80259392 191.77660994 118.39594937 189.21465477 115.97705078 186.65112305 C109.68467739 179.97968103 103.71947935 173.17342107 98 166 C97.02020313 164.80957047 96.03828832 163.62088217 95.0546875 162.43359375 C86.63386928 152.24071783 78.72588298 141.72693449 71 131 C70.14752686 129.8251001 70.14752686 129.8251001 69.27783203 128.62646484 C43.89868472 93.55907242 22.90818332 55.17626895 5.6875 15.5 C5.39824646 14.83463226 5.10899292 14.16926453 4.81097412 13.48373413 C0 2.37740963 0 2.37740963 0 0 Z " fill="#FFFFFF" transform="translate(111,641)"/>
<path d="M0 0 C0.88075195 0.18804199 1.76150391 0.37608398 2.66894531 0.56982422 C38.27617146 8.35387348 75.23770126 25.7461916 100.62890625 52.59375 C102.10926901 54.17692011 102.10926901 54.17692011 104.5 55.9375 C108.1174401 58.92188809 110.97234602 62.43067535 114 66 C114.83917969 66.95132813 115.67835938 67.90265625 116.54296875 68.8828125 C155.25621027 113.05925337 168.30084284 169.0038996 164.78466797 226.52246094 C164.27108077 232.44966654 163.30326028 238.19900401 162 244 C161.81195801 244.88075195 161.62391602 245.76150391 161.43017578 246.66894531 C153.64612652 282.27617146 136.2538084 319.23770126 109.40625 344.62890625 C107.82307989 346.10926901 107.82307989 346.10926901 106.0625 348.5 C103.07811191 352.1174401 99.56932465 354.97234602 96 358 C95.04867188 358.83917969 94.09734375 359.67835938 93.1171875 360.54296875 C48.94074663 399.25621027 -7.0038996 412.30084284 -64.52246094 408.78466797 C-70.44966654 408.27108077 -76.19900401 407.30326028 -82 406 C-82.88075195 405.81195801 -83.76150391 405.62391602 -84.66894531 405.43017578 C-120.27617146 397.64612652 -157.23770126 380.2538084 -182.62890625 353.40625 C-184.10926901 351.82307989 -184.10926901 351.82307989 -186.5 350.0625 C-190.1174401 347.07811191 -192.97234602 343.56932465 -196 340 C-196.83917969 339.04867188 -197.67835938 338.09734375 -198.54296875 337.1171875 C-237.25621027 292.94074663 -250.30084284 236.9961004 -246.78466797 179.47753906 C-246.27108077 173.55033346 -245.30326028 167.80099599 -244 162 C-243.81195801 161.11924805 -243.62391602 160.23849609 -243.43017578 159.33105469 C-235.64612652 123.72382854 -218.2538084 86.76229874 -191.40625 61.37109375 C-189.82307989 59.89073099 -189.82307989 59.89073099 -188.0625 57.5 C-185.07811191 53.8825599 -181.56932465 51.02765398 -178 48 C-176.57300781 46.74123047 -176.57300781 46.74123047 -175.1171875 45.45703125 C-128.69322069 4.77421018 -60.54899251 -13.6030256 0 0 Z M-147 102 C-147.48339844 102.43828125 -147.96679688 102.8765625 -148.46484375 103.328125 C-173.75682059 126.89429636 -186.19346821 163.662026 -187.9140625 197.42236328 C-189.21279257 236.37688635 -175.33327086 273.27090121 -148.9921875 301.890625 C-146.70688349 304.31035866 -144.38471415 306.67804149 -142 309 C-141.56171875 309.48339844 -141.1234375 309.96679688 -140.671875 310.46484375 C-117.10570364 335.75682059 -80.337974 348.19346821 -46.57763672 349.9140625 C-7.62311365 351.21279257 29.27090121 337.33327086 57.890625 310.9921875 C60.31035866 308.70688349 62.67804149 306.38471415 65 304 C65.48339844 303.56171875 65.96679688 303.1234375 66.46484375 302.671875 C91.75682059 279.10570364 104.19346821 242.337974 105.9140625 208.57763672 C107.21279257 169.62311365 93.33327086 132.72909879 66.9921875 104.109375 C64.70688349 101.68964134 62.38471415 99.32195851 60 97 C59.56171875 96.51660156 59.1234375 96.03320312 58.671875 95.53515625 C34.20832968 69.28008868 -3.16970317 57.82845823 -38 56 C-79.56156772 54.80943426 -118.33390379 72.55914444 -147 102 Z " fill="#FFFFFF" transform="translate(541,297)"/>
<path d="M0 0 C-0.72703125 0.86238281 -1.4540625 1.72476562 -2.203125 2.61328125 C-46.04381734 55.46374787 -63.80674428 124.36321978 -58.5390625 192.09765625 C-53.790273 240.16082031 -35.38202167 286.10825594 -6.0078125 324.31640625 C-3.88869147 327.1487723 -1.93759383 330.04147669 0 333 C-8.71391448 331.49126453 -16.57696447 328.14102634 -24.6875 324.75 C-25.43098694 324.44143066 -26.17447388 324.13286133 -26.94049072 323.81494141 C-42.51721526 317.34300682 -57.82318961 310.35654791 -73 303 C-73.90265594 302.56334015 -73.90265594 302.56334015 -74.82354736 302.11785889 C-90.49612557 294.5281324 -105.88453674 286.53336887 -120.93896484 277.77636719 C-123.66504675 276.19437868 -126.39875555 274.62644986 -129.13554382 273.06307983 C-145.6047081 263.64270383 -161.50617507 253.58934237 -177.18603516 242.90917969 C-180.20112164 240.86354579 -183.23846121 238.85500496 -186.28466797 236.85620117 C-194.58739452 231.39820172 -202.62770141 225.58673368 -210.64550781 219.72070312 C-213.02766618 217.97978108 -215.41591692 216.24745948 -217.8046875 214.515625 C-227.5174434 207.44715903 -237.02158375 200.17552161 -246.23974609 192.47021484 C-247.4538344 191.45617327 -248.6760681 190.45183199 -249.90478516 189.45556641 C-253.25379051 186.69287764 -255.86400275 184.29991187 -257.875 180.375 C-258.45894531 179.27285156 -258.45894531 179.27285156 -259.0546875 178.1484375 C-262.25726464 170.86985309 -262.12452554 162.16802777 -259.4375 154.75 C-256.2032819 146.64289329 -249.04373602 140.88489066 -242.1875 135.875 C-240.67759594 134.74845319 -239.16850789 133.62081202 -237.66015625 132.4921875 C-236.88945801 131.91823242 -236.11875977 131.34427734 -235.32470703 130.75292969 C-232.29356916 128.46732058 -229.32109333 126.11168929 -226.34521484 123.75488281 C-218.00586872 117.16336973 -209.42697211 111.04894193 -200.59765625 105.1328125 C-197.23835306 102.87307693 -193.96090432 100.52338434 -190.69921875 98.125 C-184.84279829 93.84199941 -178.82934707 89.83323587 -172.75 85.875 C-172.19030518 85.51005432 -171.63061035 85.14510864 -171.05395508 84.769104 C-159.52226103 77.25757018 -147.83798625 70.01910469 -136 63 C-134.9903418 62.39978027 -133.98068359 61.79956055 -132.94042969 61.18115234 C-116.56286802 51.48263677 -99.87641434 42.46977184 -82.86853027 33.9375 C-81.62492343 33.31354361 -80.38183811 32.68854666 -79.13928223 32.0625 C-57.85721 21.34119369 -36.1511389 11.78718618 -14 3 C-12.88431641 2.55575684 -11.76863281 2.11151367 -10.61914062 1.65380859 C-9.63623047 1.27691895 -8.65332031 0.9000293 -7.640625 0.51171875 C-6.80563477 0.19033936 -5.97064453 -0.13104004 -5.11035156 -0.4621582 C-3 -1 -3 -1 0 0 Z " fill="#FFFFFF" transform="translate(296,334)"/>
<path d="M0 0 C8.71391448 1.50873547 16.57696447 4.85897366 24.6875 8.25 C25.43098694 8.55856934 26.17447388 8.86713867 26.94049072 9.18505859 C42.51721526 15.65699318 57.82318961 22.64345209 73 30 C73.60177063 30.29110657 74.20354126 30.58221313 74.82354736 30.88214111 C90.49612557 38.4718676 105.88453674 46.46663113 120.93896484 55.22363281 C123.66504675 56.80562132 126.39875555 58.37355014 129.13554382 59.93692017 C145.6047081 69.35729617 161.50617507 79.41065763 177.18603516 90.09082031 C180.20112164 92.13645421 183.23846121 94.14499504 186.28466797 96.14379883 C194.58739452 101.60179828 202.62770141 107.41326632 210.64550781 113.27929688 C213.02766618 115.02021892 215.41591692 116.75254052 217.8046875 118.484375 C227.5174434 125.55284097 237.02158375 132.82447839 246.23974609 140.52978516 C247.4538344 141.54382673 248.6760681 142.54816801 249.90478516 143.54443359 C253.25379051 146.30712236 255.86400275 148.70008813 257.875 152.625 C258.26429688 153.35976563 258.65359375 154.09453125 259.0546875 154.8515625 C262.25726464 162.13014691 262.12452554 170.83197223 259.4375 178.25 C256.2032819 186.35710671 249.04373602 192.11510934 242.1875 197.125 C240.67759594 198.25154681 239.16850789 199.37918798 237.66015625 200.5078125 C236.88945801 201.08176758 236.11875977 201.65572266 235.32470703 202.24707031 C232.29356916 204.53267942 229.32109333 206.88831071 226.34521484 209.24511719 C218.00586872 215.83663027 209.42697211 221.95105807 200.59765625 227.8671875 C197.23835306 230.12692307 193.96090432 232.47661566 190.69921875 234.875 C184.84279829 239.15800059 178.82934707 243.16676413 172.75 247.125 C171.91045776 247.67241852 171.91045776 247.67241852 171.05395508 248.230896 C159.52226103 255.74242982 147.83798625 262.98089531 136 270 C134.9903418 270.60021973 133.98068359 271.20043945 132.94042969 271.81884766 C116.56286802 281.51736323 99.87641434 290.53022816 82.86853027 299.0625 C81.62492343 299.68645639 80.38183811 300.31145334 79.13928223 300.9375 C57.85721 311.65880631 36.1511389 321.21281382 14 330 C12.88431641 330.44424316 11.76863281 330.88848633 10.61914062 331.34619141 C9.14477539 331.91152588 9.14477539 331.91152588 7.640625 332.48828125 C6.80563477 332.80966064 5.97064453 333.13104004 5.11035156 333.4621582 C3 334 3 334 0 333 C0.72703125 332.13761719 1.4540625 331.27523438 2.203125 330.38671875 C46.04381734 277.53625213 63.80674428 208.63678022 58.5390625 140.90234375 C53.790273 92.83917969 35.38202167 46.89174406 6.0078125 8.68359375 C3.88869147 5.8512277 1.93759383 2.95852331 0 0 Z " fill="#FFFFFF" transform="translate(704,333)"/>
<path d="M0 0 C24.8205792 -0.76713655 47.36333444 7.22560335 65.73828125 23.92578125 C79.83531394 37.52346401 88.69211136 54.09350169 92.66796875 73.19140625 C92.89419922 74.25681641 92.89419922 74.25681641 93.125 75.34375 C93.44724559 77.30729981 93.58118496 79.20232181 93.66796875 81.19140625 C93.73113281 82.29097656 93.79429687 83.39054687 93.859375 84.5234375 C94.62651155 109.3440167 86.63377165 131.88677194 69.93359375 150.26171875 C56.33591099 164.35875144 39.76587331 173.21554886 20.66796875 177.19140625 C19.60255859 177.41763672 19.60255859 177.41763672 18.515625 177.6484375 C16.55207519 177.97068309 14.65705319 178.10462246 12.66796875 178.19140625 C11.56839844 178.25457031 10.46882813 178.31773437 9.3359375 178.3828125 C-15.4846417 179.14994905 -38.02739694 171.15720915 -56.40234375 154.45703125 C-70.49937644 140.85934849 -79.35617386 124.28931081 -83.33203125 105.19140625 C-83.48285156 104.48113281 -83.63367188 103.77085937 -83.7890625 103.0390625 C-84.11130809 101.07551269 -84.24524746 99.18049069 -84.33203125 97.19140625 C-84.39519531 96.09183594 -84.45835937 94.99226563 -84.5234375 93.859375 C-85.29057405 69.0387958 -77.29783415 46.49604056 -60.59765625 28.12109375 C-46.99997349 14.02406106 -30.42993581 5.16726364 -11.33203125 1.19140625 C-10.62175781 1.04058594 -9.91148437 0.88976562 -9.1796875 0.734375 C-6.13578829 0.23482918 -3.07755045 0.17678778 0 0 Z " fill="#FFFFFF" transform="translate(495.33203125,410.80859375)"/>
</svg>
