<?xml version="1.0" encoding="UTF-8"?>
<svg version="1.1" xmlns="http://www.w3.org/2000/svg" width="206" height="69">
<path d="M0 0 C0.93779297 0.00322266 1.87558594 0.00644531 2.84179688 0.00976562 C4.30649414 0.02233398 4.30649414 0.02233398 5.80078125 0.03515625 C6.78884766 0.03966797 7.77691406 0.04417969 8.79492188 0.04882812 C11.23443599 0.06061322 13.67382814 0.07706614 16.11328125 0.09765625 C16.11328125 2.40765625 16.11328125 4.71765625 16.11328125 7.09765625 C15.54818848 7.1227124 14.9830957 7.14776855 14.40087891 7.17358398 C11.84644383 7.28945581 9.29238575 7.41222162 6.73828125 7.53515625 C5.84882812 7.57447266 4.959375 7.61378906 4.04296875 7.65429688 C3.1921875 7.69619141 2.34140625 7.73808594 1.46484375 7.78125 C0.67932129 7.81790771 -0.10620117 7.85456543 -0.91552734 7.89233398 C-2.96195371 7.98854725 -2.96195371 7.98854725 -4.88671875 9.09765625 C-4.88671875 10.41765625 -4.88671875 11.73765625 -4.88671875 13.09765625 C-2.15422534 13.8504314 0.39428808 14.26407328 3.22265625 14.4140625 C3.97675781 14.45595703 4.73085938 14.49785156 5.5078125 14.54101562 C6.67376953 14.59999023 6.67376953 14.59999023 7.86328125 14.66015625 C9.05244141 14.72493164 9.05244141 14.72493164 10.265625 14.79101562 C12.2146594 14.89668616 14.16394873 14.99763591 16.11328125 15.09765625 C16.11328125 17.07765625 16.11328125 19.05765625 16.11328125 21.09765625 C9.51328125 21.42765625 2.91328125 21.75765625 -3.88671875 22.09765625 C-4.21671875 23.74765625 -4.54671875 25.39765625 -4.88671875 27.09765625 C2.04328125 27.42765625 8.97328125 27.75765625 16.11328125 28.09765625 C16.11328125 30.40765625 16.11328125 32.71765625 16.11328125 35.09765625 C12.21784248 35.24319224 8.32310474 35.33180684 4.42578125 35.41015625 C2.7715918 35.47299805 2.7715918 35.47299805 1.08398438 35.53710938 C-7.07031529 35.66028611 -7.07031529 35.66028611 -11.12890625 32.86328125 C-12.91526162 30.0527488 -13.50058027 28.806378 -13.32421875 25.53515625 C-13.29134766 24.41947266 -13.29134766 24.41947266 -13.2578125 23.28125 C-12.85477989 20.90972129 -12.06424416 19.18315307 -10.88671875 17.09765625 C-11.54671875 16.10765625 -12.20671875 15.11765625 -12.88671875 14.09765625 C-13.67665394 7.10108744 -13.67665394 7.10108744 -10.57421875 3.16015625 C-6.94708979 0.37654566 -4.43895058 -0.02690273 0 0 Z " fill="#1F1D1D" transform="translate(53.88671875,13.90234375)"/>
<path d="M0 0 C3.54150893 -0.08761663 7.08273633 -0.14059739 10.625 -0.1875 C11.62402344 -0.21263672 12.62304688 -0.23777344 13.65234375 -0.26367188 C19.16749448 -0.31845814 23.30403164 -0.2598227 28 3 C30.8240782 7.2361173 30.66552772 11.02438796 30 16 C28.125 19.125 28.125 19.125 26 21 C25.34 21 24.68 21 24 21 C24.5053125 21.84304687 25.010625 22.68609375 25.53125 23.5546875 C26.1809375 24.65039062 26.830625 25.74609375 27.5 26.875 C28.1496875 27.96554688 28.799375 29.05609375 29.46875 30.1796875 C31 33 31 33 31 35 C25.95899363 36.0612645 25.95899363 36.0612645 23 35 C21.2265625 32.36328125 21.2265625 32.36328125 19.5625 29.0625 C17.47922072 24.57611449 17.47922072 24.57611449 13.5625 21.98046875 C10.80464353 21.66202622 10.80464353 21.66202622 7 22 C7 26.29 7 30.58 7 35 C4.69 35 2.38 35 0 35 C-0.10787818 32.22813012 -0.18723327 29.46044463 -0.25 26.6875 C-0.28351563 25.90181641 -0.31703125 25.11613281 -0.3515625 24.30664062 C-0.4482932 18.62371227 -0.4482932 18.62371227 1.4375 16 C5.32587152 14.48258672 9.10776698 14.42576418 13.25 14.3125 C14.09046875 14.27833984 14.9309375 14.24417969 15.796875 14.20898438 C17.86412204 14.12676432 19.93203874 14.06169843 22 14 C22.042721 12.33388095 22.04063832 10.66617115 22 9 C20.38219843 7.38219843 18.54364482 7.77727853 16.30859375 7.68359375 C15.36435547 7.64169922 14.42011719 7.59980469 13.44726562 7.55664062 C12.45404297 7.51732422 11.46082031 7.47800781 10.4375 7.4375 C9.44041016 7.39431641 8.44332031 7.35113281 7.41601562 7.30664062 C4.9441585 7.20019702 2.4721969 7.09818072 0 7 C0 4.69 0 2.38 0 0 Z " fill="#201E1E" transform="translate(77,14)"/>
<path d="M0 0 C2.23339844 -0.00292969 2.23339844 -0.00292969 5.73339844 0.74707031 C2.57765485 7.3287557 -0.86753642 13.55698856 -4.82910156 19.68457031 C-5.88156084 21.32755872 -6.93363195 22.97079583 -7.98535156 24.61425781 C-8.52289063 25.45182617 -9.06042969 26.28939453 -9.61425781 27.15234375 C-11.29990244 29.79936371 -12.95853542 32.46163883 -14.61035156 35.12988281 C-15.14974365 35.99750244 -15.68913574 36.86512207 -16.24487305 37.7590332 C-17.2827214 39.42992267 -18.31625603 41.10350106 -19.3449707 42.7800293 C-20.05061157 43.91033569 -20.05061157 43.91033569 -20.77050781 45.06347656 C-21.18115479 45.72806885 -21.59180176 46.39266113 -22.01489258 47.07739258 C-23.26660156 48.74707031 -23.26660156 48.74707031 -26.26660156 50.74707031 C-29.64855586 51.0545207 -32.20967605 51.28064393 -35.28613281 49.72753906 C-38.18002899 46.83364288 -39.18557592 43.5635826 -40.51660156 39.74707031 C-40.78472656 39.02261719 -41.05285156 38.29816406 -41.32910156 37.55175781 C-42.43191802 34.50213272 -43.26660156 32.01303591 -43.26660156 28.74707031 C-40.95660156 28.74707031 -38.64660156 28.74707031 -36.26660156 28.74707031 C-32.04336694 38.15709309 -32.04336694 38.15709309 -30.26660156 42.74707031 C-27.09334074 39.80259164 -24.89023708 36.79206231 -22.65722656 33.09082031 C-21.98433594 31.98480469 -21.31144531 30.87878906 -20.61816406 29.73925781 C-19.91725777 28.57542736 -19.216738 27.41136405 -18.51660156 26.24707031 C-15.78782499 21.7336946 -13.04066604 17.23276386 -10.26660156 12.74707031 C-9.9137207 12.16953003 -9.56083984 11.59198975 -9.19726562 10.99694824 C-8.15751526 9.30522132 -7.09518882 7.62743473 -6.03222656 5.95019531 C-5.41637695 4.96696289 -4.80052734 3.98373047 -4.16601562 2.97070312 C-2.26660156 0.74707031 -2.26660156 0.74707031 0 0 Z " fill="#1F1D1D" transform="translate(43.2666015625,-0.7470703125)"/>
<path d="M0 0 C0.7734375 -0.01675781 1.546875 -0.03351562 2.34375 -0.05078125 C5.13743766 0.41989439 5.71412375 1.11731899 7.5 3.3125 C8.47906601 5.4550809 9.36786473 7.63964618 10.19921875 9.84375 C10.4391304 10.47607544 10.67904205 11.10840088 10.92622375 11.7598877 C11.43005405 13.09317928 11.92990898 14.42797905 12.42602539 15.76416016 C13.18616628 17.80891234 13.96019607 19.8479901 14.73632812 21.88671875 C18.5 31.8869778 18.5 31.8869778 18.5 35.3125 C16.19 35.3125 13.88 35.3125 11.5 35.3125 C9.42940762 30.84002047 7.49695977 26.34913608 5.74609375 21.7421875 C5.28408569 20.52861572 5.28408569 20.52861572 4.81274414 19.29052734 C4.18993033 17.6447163 3.5731763 15.99659874 2.96264648 14.34619141 C2.67333252 13.58226074 2.38401855 12.81833008 2.0859375 12.03125 C1.8286084 11.33966797 1.5712793 10.64808594 1.30615234 9.93554688 C0.60436825 8.11380136 0.60436825 8.11380136 -1.5 7.3125 C-1.63535156 7.82554688 -1.77070313 8.33859375 -1.91015625 8.8671875 C-4.45516238 17.91948476 -8.02993912 26.58505921 -11.5 35.3125 C-14.14 35.3125 -16.78 35.3125 -19.5 35.3125 C-18.4901531 29.28088306 -16.11056556 23.74675737 -13.88964844 18.08227539 C-13.12473694 16.12432664 -12.37470767 14.16107775 -11.625 12.19726562 C-11.13892315 10.95016876 -10.65197392 9.7034115 -10.1640625 8.45703125 C-9.72529785 7.32628174 -9.2865332 6.19553223 -8.83447266 5.03051758 C-6.76195592 0.80927191 -4.45218603 0.02226093 0 0 Z " fill="#ED3136" transform="translate(176.5,13.6875)"/>
<path d="M0 0 C0.87914062 0.01353516 1.75828125 0.02707031 2.6640625 0.04101562 C4.81797552 0.07613377 6.97157004 0.12993306 9.125 0.1875 C9.125 2.4975 9.125 4.8075 9.125 7.1875 C7.93261719 7.23648437 6.74023438 7.28546875 5.51171875 7.3359375 C3.94528932 7.41097604 2.37888421 7.4865234 0.8125 7.5625 C0.02681641 7.5934375 -0.75886719 7.624375 -1.56835938 7.65625 C-2.7043457 7.71425781 -2.7043457 7.71425781 -3.86328125 7.7734375 C-4.55977783 7.8048584 -5.25627441 7.8362793 -5.97387695 7.86865234 C-8.20032739 8.10868253 -8.20032739 8.10868253 -10.875 10.1875 C-11.205 11.8375 -11.535 13.4875 -11.875 15.1875 C-4.945 15.1875 1.985 15.1875 9.125 15.1875 C9.125 17.4975 9.125 19.8075 9.125 22.1875 C2.195 22.1875 -4.735 22.1875 -11.875 22.1875 C-11.875 26.4775 -11.875 30.7675 -11.875 35.1875 C-14.185 35.1875 -16.495 35.1875 -18.875 35.1875 C-18.96242801 30.97929855 -19.01553641 26.77133224 -19.0625 22.5625 C-19.08763672 21.37269531 -19.11277344 20.18289062 -19.13867188 18.95703125 C-19.23528087 7.42835762 -19.23528087 7.42835762 -15.875 3.1875 C-10.85031923 -0.45501174 -5.94468807 -0.17458045 0 0 Z " fill="#1F1D1D" transform="translate(145.875,13.8125)"/>
<path d="M0 0 C2.31 0 4.62 0 7 0 C7 11.55 7 23.1 7 35 C4.69 35 2.38 35 0 35 C0 23.45 0 11.9 0 0 Z " fill="#201D1D" transform="translate(113,14)"/>
<path d="M0 0 C1.875 0.125 1.875 0.125 4 1 C5.25 4.0625 5.25 4.0625 6 7 C6.99 4.69 7.98 2.38 9 0 C13.62 0 18.24 0 23 0 C23 0.99 23 1.98 23 3 C21.02 3 19.04 3 17 3 C17 3.99 17 4.98 17 6 C18.98 6 20.96 6 23 6 C23 6.99 23 7.98 23 9 C21.02 9 19.04 9 17 9 C17 9.66 17 10.32 17 11 C18.98 11 20.96 11 23 11 C23 11.99 23 12.98 23 14 C19.7 14 16.4 14 13 14 C12.67 11.03 12.34 8.06 12 5 C11.01 7.97 10.02 10.94 9 14 C7.02 14 5.04 14 3 14 C-0.44419134 4.58997722 -0.44419134 4.58997722 0 0 Z " fill="#ED3136" transform="translate(183,55)"/>
<path d="M0 0 C1.98 0 3.96 0 6 0 C6 11.55 6 23.1 6 35 C4.02 35 2.04 35 0 35 C0 23.45 0 11.9 0 0 Z " fill="#EC3236" transform="translate(200,14)"/>
<path d="M0 0 C1.32 0 2.64 0 4 0 C4 3.63 4 7.26 4 11 C5.65 11 7.3 11 9 11 C9 11.99 9 12.98 9 14 C6.03 14 3.06 14 0 14 C0 9.38 0 4.76 0 0 Z " fill="#ED3237" transform="translate(167,55)"/>
<path d="M0 0 C1.2684375 0.12375 1.2684375 0.12375 2.5625 0.25 C4.5625 3.25 4.5625 3.25 4.1875 5.9375 C3.98125 6.700625 3.775 7.46375 3.5625 8.25 C1.8125 8.9375 1.8125 8.9375 -0.4375 9.25 C-2.6875 7.8125 -2.6875 7.8125 -4.4375 6.25 C-3.37788848 0.3464501 -3.37788848 0.3464501 0 0 Z " fill="#EE2F34" transform="translate(160.4375,57.75)"/>
<path d="M0 0 C1.32 0 2.64 0 4 0 C4 4.62 4 9.24 4 14 C2.68 14 1.36 14 0 14 C0 9.38 0 4.76 0 0 Z " fill="#EC3136" transform="translate(178,55)"/>
</svg>
