<svg xmlns="http://www.w3.org/2000/svg" width="12.025" height="13" viewBox="0 0 12.025 13">
  <g id="audio" transform="translate(-1.714 -1.715)">
    <path id="Path_597" data-name="Path 597" d="M10.164,4.167a4.357,4.357,0,0,1,0,8.076v.908a5.211,5.211,0,0,0,0-9.9v.911Zm0,2.145a2.494,2.494,0,0,1,0,3.787v.924a3.256,3.256,0,0,0,0-5.636v.924Zm-7.475,4.5h2.6l2.925,3.58a.752.752,0,0,0,1.3-.1V2.147a.763.763,0,0,0-1.3-.124L5.289,5.615h-2.6c-.832,0-.975.15-.975.963V9.833C1.714,10.626,1.877,10.808,2.689,10.808Z" transform="translate(0 0)" fill="#989fb4"/>
  </g>
</svg>
