<svg xmlns="http://www.w3.org/2000/svg" width="30" height="45" viewBox="0 0 30 45">
  <g id="bulb" transform="translate(-9 -1.5)" opacity="0.5">
    <path id="Path_552" data-name="Path 552" d="M27,43.5H21a1.5,1.5,0,0,0,0,3h6a1.5,1.5,0,0,0,0-3Z" fill="#989fb4"/>
    <path id="Path_553" data-name="Path 553" d="M28.5,39h-9a1.5,1.5,0,0,0,0,3h9a1.5,1.5,0,0,0,0-3Z" fill="#989fb4"/>
    <path id="Path_554" data-name="Path 554" d="M34.633,5.877A15.011,15.011,0,0,0,9,16.5a15.4,15.4,0,0,0,4.594,11.216L14,28.1c1.688,1.579,4,3.742,4,5.65V36a1.5,1.5,0,0,0,1.5,1.5h2.25a.75.75,0,0,0,.75-.75V25.764a.75.75,0,0,0-.481-.7,12.256,12.256,0,0,1-2.452-1.345,1.5,1.5,0,1,1,1.742-2.438A6.758,6.758,0,0,0,24,22.5a6.8,6.8,0,0,0,2.693-1.219,1.5,1.5,0,0,1,1.74,2.438,12.256,12.256,0,0,1-2.452,1.343.75.75,0,0,0-.481.7V36.75a.75.75,0,0,0,.75.75H28.5A1.5,1.5,0,0,0,30,36V33.75c0-1.864,2.284-4.025,3.952-5.6l.46-.437A15.083,15.083,0,0,0,39,16.5,14.921,14.921,0,0,0,34.633,5.877Z" fill="#989fb4"/>
  </g>
</svg>
