<svg xmlns="http://www.w3.org/2000/svg" width="12.775" height="12" viewBox="0 0 12.775 12">
  <path id="Union_182" data-name="Union 182" d="M.678,12A.689.689,0,0,1,0,11.3V2.636a.689.689,0,0,1,.7-.7H2.245V3.1a.852.852,0,0,0,1.7,0V1.936H7.936A2.9,2.9,0,0,0,12.388,4.39V11.3a.689.689,0,0,1-.678.7ZM9.291,9.678h.774V8.9H9.291Zm-2.323,0h.774V8.9H6.968Zm-2.322,0H5.42V8.9H4.646Zm-2.323,0H3.1V8.9H2.323ZM9.291,7.742h.774V6.968H9.291Zm-2.323,0h.774V6.968H6.968Zm-2.322,0H5.42V6.968H4.646Zm-2.323,0H3.1V6.968H2.323ZM9.291,5.807h.774V5.032H9.291Zm-2.323,0h.774V5.032H6.968Zm-2.322,0H5.42V5.032H4.646Zm-2.323,0H3.1V5.032H2.323ZM8.9,1.936a1.935,1.935,0,1,1,1.935,1.935A1.935,1.935,0,0,1,8.9,1.936ZM2.71,3.1V.774a.387.387,0,0,1,.774,0V3.1a.387.387,0,0,1-.774,0Z" fill="#ed3237"/>
</svg>
