<svg xmlns="http://www.w3.org/2000/svg" width="24.91" height="25" viewBox="0 0 24.91 25">
  <path id="Path_517" data-name="Path 517" d="M24.773,10.828,9.5,4.106a1.247,1.247,0,0,0-1.653.651L4.1,13.508a1.25,1.25,0,0,0,.656,1.641l8.7,3.726L11.9,22.75H6.5V19H4V29H6.5V25.25h5.4a2.484,2.484,0,0,0,2.32-1.573l1.528-3.818,4.274,1.831a1.25,1.25,0,0,0,1.639-.648l3.75-8.571A1.25,1.25,0,0,0,24.773,10.828Zm1.64,11.138-2.323-.928,2.5-6.25,2.323.926Z" transform="translate(-4 -4.001)" fill="#989fb4" opacity="0.5"/>
</svg>
