<svg xmlns="http://www.w3.org/2000/svg" width="12" height="12" viewBox="0 0 12 12">
  <path id="Union_58" data-name="Union 58" d="M9.818,10.91A1.091,1.091,0,1,1,10.91,12,1.091,1.091,0,0,1,9.818,10.91Zm-3.273,0A1.091,1.091,0,1,1,7.637,12,1.091,1.091,0,0,1,6.546,10.91Zm-3.273,0A1.091,1.091,0,1,1,4.364,12,1.091,1.091,0,0,1,3.273,10.91ZM0,10.91A1.091,1.091,0,1,1,1.091,12,1.091,1.091,0,0,1,0,10.91ZM9.818,7.637a1.091,1.091,0,1,1,1.091,1.09A1.091,1.091,0,0,1,9.818,7.637Zm-3.273,0a1.091,1.091,0,1,1,1.091,1.09A1.091,1.091,0,0,1,6.546,7.637Zm-3.273,0a1.091,1.091,0,1,1,1.091,1.09A1.091,1.091,0,0,1,3.273,7.637ZM0,7.637a1.091,1.091,0,1,1,1.091,1.09A1.091,1.091,0,0,1,0,7.637ZM9.818,4.364a1.091,1.091,0,1,1,1.091,1.09A1.091,1.091,0,0,1,9.818,4.364Zm-3.273,0a1.091,1.091,0,1,1,1.091,1.09A1.091,1.091,0,0,1,6.546,4.364Zm-3.273,0a1.091,1.091,0,1,1,1.091,1.09A1.091,1.091,0,0,1,3.273,4.364ZM0,4.364a1.091,1.091,0,1,1,1.091,1.09A1.091,1.091,0,0,1,0,4.364ZM9.818,1.091a1.091,1.091,0,1,1,1.091,1.09A1.091,1.091,0,0,1,9.818,1.091Zm-3.273,0a1.091,1.091,0,1,1,1.091,1.09A1.091,1.091,0,0,1,6.546,1.091Zm-3.273,0a1.091,1.091,0,1,1,1.091,1.09A1.091,1.091,0,0,1,3.273,1.091ZM0,1.091a1.091,1.091,0,1,1,1.091,1.09A1.091,1.091,0,0,1,0,1.091Z" fill="#989fb4"/>
</svg>
