<svg xmlns="http://www.w3.org/2000/svg" width="11.566" height="11" viewBox="0 0 11.566 11">
  <path id="Union_122" data-name="Union 122" d="M.721,11A.721.721,0,0,1,0,10.279V6.165a.721.721,0,0,1,.721-.722H3.288a.721.721,0,0,1,.687.5,1.9,1.9,0,0,0,3.616,0,.721.721,0,0,1,.686-.5h2.567a.721.721,0,0,1,.722.722v4.114a.721.721,0,0,1-.722.721ZM5.789,5.909a.2.2,0,0,1-.158-.081L3.623,3.022a.194.194,0,0,1,.158-.307H4.72V.194A.194.194,0,0,1,4.914,0H6.651a.194.194,0,0,1,.194.194V2.715h.938a.193.193,0,0,1,.172.105.2.2,0,0,1-.014.2L5.948,5.827a.194.194,0,0,1-.158.082Z" fill="#fff"/>
</svg>
