<svg xmlns="http://www.w3.org/2000/svg" width="14.72" height="14" viewBox="0 0 14.72 14">
  <path id="Union_150" data-name="Union 150" d="M.918,14A.918.918,0,0,1,0,13.082V7.846a.918.918,0,0,1,.918-.918H4.185a.918.918,0,0,1,.874.636,2.417,2.417,0,0,0,4.6,0,.917.917,0,0,1,.873-.636H13.8a.918.918,0,0,1,.918.918v5.236A.918.918,0,0,1,13.8,14Zm6.45-6.479a.249.249,0,0,1-.2-.1L4.611,3.846a.247.247,0,0,1,.2-.39h1.2V.247A.247.247,0,0,1,6.254,0H8.465a.247.247,0,0,1,.247.247V3.455H9.907a.246.246,0,0,1,.219.134.248.248,0,0,1-.018.257L7.57,7.417a.247.247,0,0,1-.2.1Z"/>
</svg>
