<svg id="file-earmark-plus" xmlns="http://www.w3.org/2000/svg" width="25" height="25" viewBox="0 0 25 25">
  <path id="Path_401" data-name="Path 401" d="M16.458,2.25H7.917A3.5,3.5,0,0,0,4.5,5.821V23.679A3.5,3.5,0,0,0,7.917,27.25h8.542V25.464H7.917a1.748,1.748,0,0,1-1.708-1.786V5.821A1.748,1.748,0,0,1,7.917,4.036h8.542V8.5a2.622,2.622,0,0,0,2.562,2.679h4.271V14.75H25V11.179Z" transform="translate(-4.5 -2.25)" fill="#989fb4"/>
  <path id="Path_402" data-name="Path 402" d="M30.375,22.5A1.125,1.125,0,0,1,31.5,23.625v4.5a1.125,1.125,0,0,1-1.125,1.125h-4.5a1.125,1.125,0,0,1,0-2.25H29.25V23.625A1.125,1.125,0,0,1,30.375,22.5Z" transform="translate(-11 -8.75)" fill="#989fb4" fill-rule="evenodd"/>
  <path id="Path_403" data-name="Path 403" d="M29.25,28.125A1.125,1.125,0,0,1,30.375,27h4.5a1.125,1.125,0,0,1,0,2.25H31.5v3.375a1.125,1.125,0,0,1-2.25,0Z" transform="translate(-11 -8.75)" fill="#989fb4" fill-rule="evenodd"/>
</svg>
