<svg xmlns="http://www.w3.org/2000/svg" xmlns:xlink="http://www.w3.org/1999/xlink" width="25" height="20" viewBox="0 0 25 20">
  <defs>
    <clipPath id="clip-path">
      <rect width="25" height="20" fill="none"/>
    </clipPath>
  </defs>
  <g id="Repeat_Grid_73" data-name="Repeat Grid 73" clip-path="url(#clip-path)">
    <g transform="translate(-715 -78)">
      <rect id="Rectangle_877" data-name="Rectangle 877" width="4" height="4" transform="translate(715 78)" opacity="0.25"/>
    </g>
    <g transform="translate(-710 -78)">
      <rect id="Rectangle_877-2" data-name="Rectangle 877" width="4" height="4" transform="translate(715 78)" opacity="0.25"/>
    </g>
    <g transform="translate(-705 -78)">
      <rect id="Rectangle_877-3" data-name="Rectangle 877" width="4" height="4" transform="translate(715 78)" opacity="0.25"/>
    </g>
    <g transform="translate(-700 -78)">
      <rect id="Rectangle_877-4" data-name="Rectangle 877" width="4" height="4" transform="translate(715 78)" opacity="0.25"/>
    </g>
    <g transform="translate(-695 -78)">
      <rect id="Rectangle_877-5" data-name="Rectangle 877" width="4" height="4" transform="translate(715 78)" opacity="0.25"/>
    </g>
    <g transform="translate(-715 -73)">
      <rect id="Rectangle_877-6" data-name="Rectangle 877" width="4" height="4" transform="translate(715 78)" opacity="0.25"/>
    </g>
    <g transform="translate(-710 -73)">
      <rect id="Rectangle_877-7" data-name="Rectangle 877" width="4" height="4" transform="translate(715 78)" opacity="0.25"/>
    </g>
    <g transform="translate(-705 -73)">
      <rect id="Rectangle_877-8" data-name="Rectangle 877" width="4" height="4" transform="translate(715 78)" opacity="0.25"/>
    </g>
    <g transform="translate(-700 -73)">
      <rect id="Rectangle_877-9" data-name="Rectangle 877" width="4" height="4" transform="translate(715 78)" opacity="0.25"/>
    </g>
    <g transform="translate(-695 -73)">
      <rect id="Rectangle_877-10" data-name="Rectangle 877" width="4" height="4" transform="translate(715 78)" opacity="0.25"/>
    </g>
    <g transform="translate(-715 -68)">
      <rect id="Rectangle_877-11" data-name="Rectangle 877" width="4" height="4" transform="translate(715 78)" opacity="0.25"/>
    </g>
    <g transform="translate(-710 -68)">
      <rect id="Rectangle_877-12" data-name="Rectangle 877" width="4" height="4" transform="translate(715 78)" opacity="0.25"/>
    </g>
    <g transform="translate(-705 -68)">
      <rect id="Rectangle_877-13" data-name="Rectangle 877" width="4" height="4" transform="translate(715 78)" opacity="0.25"/>
    </g>
    <g transform="translate(-700 -68)">
      <rect id="Rectangle_877-14" data-name="Rectangle 877" width="4" height="4" transform="translate(715 78)" opacity="0.25"/>
    </g>
    <g transform="translate(-695 -68)">
      <rect id="Rectangle_877-15" data-name="Rectangle 877" width="4" height="4" transform="translate(715 78)" opacity="0.25"/>
    </g>
    <g transform="translate(-715 -63)">
      <rect id="Rectangle_877-16" data-name="Rectangle 877" width="4" height="4" transform="translate(715 78)" opacity="0.25"/>
    </g>
    <g transform="translate(-710 -63)">
      <rect id="Rectangle_877-17" data-name="Rectangle 877" width="4" height="4" transform="translate(715 78)" opacity="0.25"/>
    </g>
    <g transform="translate(-705 -63)">
      <rect id="Rectangle_877-18" data-name="Rectangle 877" width="4" height="4" transform="translate(715 78)" opacity="0.25"/>
    </g>
    <g transform="translate(-700 -63)">
      <rect id="Rectangle_877-19" data-name="Rectangle 877" width="4" height="4" transform="translate(715 78)" opacity="0.25"/>
    </g>
    <g transform="translate(-695 -63)">
      <rect id="Rectangle_877-20" data-name="Rectangle 877" width="4" height="4" transform="translate(715 78)" opacity="0.25"/>
    </g>
  </g>
</svg>
