<svg xmlns="http://www.w3.org/2000/svg" width="12" height="12" viewBox="0 0 12 12">
  <path id="Union_54" data-name="Union 54" d="M9,10.5A1.5,1.5,0,1,1,10.5,12,1.5,1.5,0,0,1,9,10.5Zm-4.5,0A1.5,1.5,0,1,1,6,12,1.5,1.5,0,0,1,4.5,10.5ZM0,10.5A1.5,1.5,0,1,1,1.5,12,1.5,1.5,0,0,1,0,10.5ZM9,6a1.5,1.5,0,1,1,1.5,1.5A1.5,1.5,0,0,1,9,6ZM4.5,6A1.5,1.5,0,1,1,6,7.5,1.5,1.5,0,0,1,4.5,6ZM0,6A1.5,1.5,0,1,1,1.5,7.5,1.5,1.5,0,0,1,0,6ZM9,1.5A1.5,1.5,0,1,1,10.5,3,1.5,1.5,0,0,1,9,1.5Zm-4.5,0A1.5,1.5,0,1,1,6,3,1.5,1.5,0,0,1,4.5,1.5ZM0,1.5A1.5,1.5,0,1,1,1.5,3,1.5,1.5,0,0,1,0,1.5Z" fill="#989fb4"/>
</svg>
