<svg xmlns="http://www.w3.org/2000/svg" width="12" height="15" viewBox="0 0 12 15">
  <path id="Union_53" data-name="Union 53" d="M-604.542-2394.375a1.769,1.769,0,0,1-1.457-1.78,3.846,3.846,0,0,1,3.845-3.846h4.309a3.846,3.846,0,0,1,3.845,3.846,1.77,1.77,0,0,1-1.457,1.78A28.223,28.223,0,0,1-600-2394,28.224,28.224,0,0,1-604.542-2394.375Zm.793-10.875A3.75,3.75,0,0,1-600-2409a3.75,3.75,0,0,1,3.75,3.75,3.75,3.75,0,0,1-3.75,3.75A3.75,3.75,0,0,1-603.75-2405.25Z" transform="translate(606 2409)" fill="#fff"/>
</svg>
