<svg xmlns="http://www.w3.org/2000/svg" width="35" height="35" viewBox="0 0 35 35">
  <g id="Group_220" data-name="Group 220" transform="translate(-764 -690)">
    <path id="Path_584" data-name="Path 584" d="M-1.41-2.273a.863.863,0,0,0-.863.863V3.771a.863.863,0,0,1-.863.863A.863.863,0,0,1-4,3.771V-1.41A2.59,2.59,0,0,1-1.41-4H3.771a.863.863,0,0,1,.863.863.863.863,0,0,1-.863.863Zm23.775-.863A.863.863,0,0,1,23.229-4H28.41A2.59,2.59,0,0,1,31-1.41V3.771a.863.863,0,1,1-1.727,0V-1.41a.863.863,0,0,0-.863-.863H23.229A.863.863,0,0,1,22.365-3.137Zm-25.5,25.5a.863.863,0,0,1,.863.863V28.41a.863.863,0,0,0,.863.863H3.771a.863.863,0,1,1,0,1.727H-1.41A2.59,2.59,0,0,1-4,28.41V23.229A.863.863,0,0,1-3.137,22.365Zm33.273,0a.863.863,0,0,1,.863.863V28.41A2.59,2.59,0,0,1,28.41,31H23.229a.863.863,0,1,1,0-1.727H28.41a.863.863,0,0,0,.863-.863V23.229A.863.863,0,0,1,30.137,22.365Z" transform="translate(768 694)"/>
    <path id="Path_585" data-name="Path 585" d="M7.333,22A1.306,1.306,0,0,1,6,20.667c0-1.333,1.333-5.333,8-5.333s8,4,8,5.333A1.306,1.306,0,0,1,20.667,22ZM18,10a4,4,0,1,1-4-4A4,4,0,0,1,18,10Z" transform="translate(768.375 693.375)"/>
  </g>
</svg>
