<svg xmlns="http://www.w3.org/2000/svg" width="35" height="35" viewBox="0 0 35 35">
  <g id="Group_221" data-name="Group 221" transform="translate(-1006 -690)">
    <path id="Path_593" data-name="Path 593" d="M-1.41-2.273a.863.863,0,0,0-.863.863V3.771a.863.863,0,0,1-.863.863A.863.863,0,0,1-4,3.771V-1.41A2.59,2.59,0,0,1-1.41-4H3.771a.863.863,0,0,1,.863.863.863.863,0,0,1-.863.863Zm23.775-.863A.863.863,0,0,1,23.229-4H28.41A2.59,2.59,0,0,1,31-1.41V3.771a.863.863,0,1,1-1.727,0V-1.41a.863.863,0,0,0-.863-.863H23.229A.863.863,0,0,1,22.365-3.137Zm-25.5,25.5a.863.863,0,0,1,.863.863V28.41a.863.863,0,0,0,.863.863H3.771a.863.863,0,1,1,0,1.727H-1.41A2.59,2.59,0,0,1-4,28.41V23.229A.863.863,0,0,1-3.137,22.365Zm33.273,0a.863.863,0,0,1,.863.863V28.41A2.59,2.59,0,0,1,28.41,31H23.229a.863.863,0,1,1,0-1.727H28.41a.863.863,0,0,0,.863-.863V23.229A.863.863,0,0,1,30.137,22.365Z" transform="translate(1010 694)" fill="#989fb4" opacity="0.4"/>
    <g id="car" transform="translate(1010 692)" opacity="0.4">
      <path id="Path_594" data-name="Path 594" d="M21.987,14.2a.667.667,0,0,0-.042-.128L20.371,10.4A2.4,2.4,0,0,0,18.12,9H9.88a2.4,2.4,0,0,0-2.25,1.4L6.054,14.071A.655.655,0,0,0,6,14.333v7.333a.667.667,0,0,0,.667.667H8a.667.667,0,0,0,.667-.667V21H19.333v.667a.667.667,0,0,0,.667.667h1.333A.667.667,0,0,0,22,21.667V14.333A.673.673,0,0,0,21.987,14.2ZM9.333,18.333A1.333,1.333,0,1,1,10.667,17,1.333,1.333,0,0,1,9.333,18.333Zm9.333,0A1.333,1.333,0,1,1,20,17,1.333,1.333,0,0,1,18.667,18.333ZM7.677,13.667l1.176-2.744a1.1,1.1,0,0,1,1.026-.59H18.12a1.1,1.1,0,0,1,1.026.59l1.176,2.744Z" transform="translate(0)" fill="#989fb4"/>
    </g>
  </g>
</svg>
