<svg xmlns="http://www.w3.org/2000/svg" width="7.5" height="12" viewBox="0 0 7.5 12">
  <g id="pin" transform="translate(-9)">
    <g id="Group_171" data-name="Group 171" transform="translate(9 0)">
      <path id="Path_470" data-name="Path 470" d="M9.859.109A.375.375,0,0,1,10.125,0h5.25a.375.375,0,0,1,.375.375,1.564,1.564,0,0,1-.484,1.109A2.144,2.144,0,0,1,15,1.708V5.031l.059.036a4.421,4.421,0,0,1,.563.416A2.268,2.268,0,0,1,16.5,7.125a.375.375,0,0,1-.375.375h-3v3.375c0,.207-.168,1.125-.375,1.125s-.375-.918-.375-1.125V7.5h-3A.375.375,0,0,1,9,7.125a2.27,2.27,0,0,1,.877-1.642,4.441,4.441,0,0,1,.623-.452V1.708a2.077,2.077,0,0,1-.265-.223A1.566,1.566,0,0,1,9.75.375.375.375,0,0,1,9.859.109Zm1.185,1.056h0Zm0,0h0a.375.375,0,0,1,.205.334V5.25a.375.375,0,0,1-.207.335h0l-.009.005-.04.023a3.692,3.692,0,0,0-.62.435,1.983,1.983,0,0,0-.544.7h5.844a1.984,1.984,0,0,0-.544-.7,3.686,3.686,0,0,0-.661-.458l-.009,0h0a.375.375,0,0,1-.207-.336V1.5a.375.375,0,0,1,.221-.343,1.331,1.331,0,0,0,.263-.2A1.015,1.015,0,0,0,14.9.75h-4.29a1.036,1.036,0,0,0,.16.2A1.335,1.335,0,0,0,11.043,1.165Z" transform="translate(-9 0)" fill="#989fb4"/>
    </g>
  </g>
</svg>
