<svg xmlns="http://www.w3.org/2000/svg" width="11.996" height="11.999" viewBox="0 0 11.996 11.999">
  <path id="Union_181" data-name="Union 181" d="M16560.5-12964.864h-7a1.285,1.285,0,0,1-1.357.854,1.278,1.278,0,0,1-1.131-1.133,1.281,1.281,0,0,1,.852-1.356v-7a1.282,1.282,0,0,1-.852-1.355,1.281,1.281,0,0,1,1.131-1.135,1.288,1.288,0,0,1,1.357.855h7a1.284,1.284,0,0,1,1.355-.855,1.283,1.283,0,0,1,1.133,1.135,1.285,1.285,0,0,1-.854,1.355v7a1.285,1.285,0,0,1,.854,1.356,1.28,1.28,0,0,1-1.133,1.133c-.049,0-.1.008-.145.008A1.284,1.284,0,0,1,16560.5-12964.864Zm-7.783-8.64v7a1.288,1.288,0,0,1,.779.779h7a1.281,1.281,0,0,1,.777-.779v-7a1.282,1.282,0,0,1-.777-.78h-7A1.29,1.29,0,0,1,16552.721-12973.5Zm1.285,6.926a.429.429,0,0,1-.432-.428V-12973a.431.431,0,0,1,.432-.428H16560a.431.431,0,0,1,.43.428v5.994a.429.429,0,0,1-.43.428Zm2.016-3.729,1.408,1.413.98-.983a.424.424,0,0,1,.3-.129.426.426,0,0,1,.3.129l.553.556v-3.249h-5.137v3.249l.979-.985a.438.438,0,0,1,.3-.126A.438.438,0,0,1,16556.021-12970.307Zm.98-.766a.642.642,0,0,1,.643-.643.64.64,0,0,1,.641.643.639.639,0,0,1-.641.641A.641.641,0,0,1,16557-12971.072Z" transform="translate(-16551.004 12976.002)" fill="#fff" opacity="0.5"/>
</svg>
