<svg xmlns="http://www.w3.org/2000/svg" width="12.717" height="13" viewBox="0 0 12.717 13">
  <path id="Union_180" data-name="Union 180" d="M14502.121-3278a.422.422,0,0,1-.424-.424v-1.13a.423.423,0,0,1,.424-.424h8.477a.424.424,0,0,1,.424.424v1.13a.424.424,0,0,1-.424.424Zm.422-2.826v-3.815a3.82,3.82,0,0,1,3.814-3.815,3.821,3.821,0,0,1,3.818,3.815v3.815Zm3.393-5.511a.423.423,0,0,0,.422.424,1.274,1.274,0,0,1,1.273,1.272.424.424,0,0,0,.424.424.423.423,0,0,0,.422-.424,2.121,2.121,0,0,0-2.119-2.119A.423.423,0,0,0,14505.936-3286.337Zm5.512,2.119a.425.425,0,0,1-.426-.424.426.426,0,0,1,.426-.424h.846a.424.424,0,0,1,.424.424.424.424,0,0,1-.424.424Zm-11.021,0a.424.424,0,0,1-.426-.424.424.424,0,0,1,.426-.424h.846a.426.426,0,0,1,.426.424.425.425,0,0,1-.426.424Zm9.23-3.721a.423.423,0,0,1,0-.6l.6-.6a.427.427,0,0,1,.6,0,.426.426,0,0,1,0,.6l-.6.6a.418.418,0,0,1-.3.124A.424.424,0,0,1,14509.656-3287.939Zm-7.2,0-.6-.6a.423.423,0,0,1,0-.6.422.422,0,0,1,.6,0l.6.6a.426.426,0,0,1,0,.6.428.428,0,0,1-.3.124A.43.43,0,0,1,14502.461-3287.939Zm3.475-1.79v-.848a.423.423,0,0,1,.422-.424.422.422,0,0,1,.424.424v.848a.423.423,0,0,1-.424.424A.423.423,0,0,1,14505.936-3289.729Z" transform="translate(-14500 3291)" fill="#fff" opacity="0.5"/>
</svg>
