<svg xmlns="http://www.w3.org/2000/svg" width="23.836" height="17" viewBox="0 0 23.836 17">
  <path id="Union_125" data-name="Union 125" d="M20.048,17H5.225L19.2,10.484V15.3h.85V17h0ZM.737,14.267,5.6,12.041V10.2A6.8,6.8,0,0,1,18.012,6.359l5.869-2.687.692,1.358L1.306,15.875ZM7.3,10.2H9a3.4,3.4,0,0,1,3.4-3.4V5.1A5.106,5.106,0,0,0,7.3,10.2Zm-.91-4.808-1.8-1.8,1.2-1.2,1.8,1.8-1.2,1.2h0Zm12.02,0-1.2-1.2,1.8-1.8,1.2,1.2-1.8,1.8h0ZM13.247,2.55h-1.7V0h1.7V2.549h0Z" transform="translate(-0.737)"/>
</svg>
