<svg xmlns="http://www.w3.org/2000/svg" width="11.6" height="12" viewBox="0 0 11.6 12">
  <path id="Union_55" data-name="Union 55" d="M7.6,12v-.8h3.2V2.8H7.6V2h3.2a.8.8,0,0,1,.8.8V12ZM0,12V.848A.848.848,0,0,1,.848,0h5.5A.848.848,0,0,1,7.2.848V12Zm5.2-2v1.2H6.4V.848A.048.048,0,0,0,6.352.8H.848A.048.048,0,0,0,.8.848V11.2H2V10Zm4-1.2V8H10v.8Zm-1.6,0V8h.8v.8Zm-2.8,0V8h.8v.8Zm-1.6,0V8H4v.8Zm-1.6,0V8h.8v.8Zm7.6-2V6H10v.8Zm-1.6,0V6h.8v.8Zm-2.8,0V6h.8v.8Zm-1.6,0V6H4v.8Zm-1.6,0V6h.8v.8Zm7.6-2V4H10v.8Zm-1.6,0V4h.8v.8Zm-2.8,0V4h.8v.8Zm-1.6,0V4H4v.8Zm-1.6,0V4h.8v.8Zm3.2-2V2h.8v.8Zm-1.6,0V2H4v.8Zm-1.6,0V2h.8v.8Z" fill="#fd6327"/>
</svg>
