<svg xmlns="http://www.w3.org/2000/svg" width="12" height="9.531" viewBox="0 0 12 9.531">
  <path id="Union_60" data-name="Union 60" d="M1.235.531,1.766,0l9,9-.531.531ZM0,4.766A10.156,10.156,0,0,1,1.982,2.338L3.526,3.883A2.625,2.625,0,0,0,6.882,7.238L8.093,8.449A5.271,5.271,0,0,1,6,8.89C2.25,8.89,0,4.766,0,4.766Zm8.473.882A2.625,2.625,0,0,0,5.117,2.292l-1.21-1.21h0A5.27,5.27,0,0,1,6,.641c3.75,0,6,4.125,6,4.125a10.21,10.21,0,0,1-1.981,2.428Zm-3.8.444A1.875,1.875,0,0,1,4.144,4.5L6.266,6.622a1.875,1.875,0,0,1-1.592-.53ZM5.735,2.909A1.875,1.875,0,0,1,7.856,5.03h0ZM4.143,4.5h0Z" fill="#989fb4"/>
</svg>
