<svg xmlns="http://www.w3.org/2000/svg" width="12" height="11.25" viewBox="0 0 12 11.25">
  <path id="Union_67" data-name="Union 67" d="M.7,11.25a.7.7,0,0,1-.7-.7V3.705A.7.7,0,0,1,.7,3H11.3a.7.7,0,0,1,.7.7v6.84a.7.7,0,0,1-.7.7ZM4.3,5.146a.375.375,0,0,0-.172.314V8.73a.375.375,0,0,0,.529.341L8.318,7.436a.375.375,0,0,0,0-.686L4.654,5.119a.374.374,0,0,0-.357.027ZM.8,2.25V1.875A.375.375,0,0,1,1.17,1.5h9.75a.375.375,0,0,1,.375.375V2.25ZM1.552.75V.375A.375.375,0,0,1,1.928,0h8.25a.375.375,0,0,1,.375.375V.75Z" fill="#989fb4"/>
</svg>
